<svg width="857" height="443" viewBox="0 0 857 443" fill="none" xmlns="http://www.w3.org/2000/svg">
<path d="M0.666656 4.53336C0.666656 8.6667 2.53332 10 8.79999 10C22.8 10 48.6667 18.4 61.0667 26.9334C75.2 36.5334 83.4667 47.3334 100 78C106 89.0667 112.533 101.067 127.733 128.667C129.867 132.667 134.8 141.733 138.533 148.667C142.4 155.6 151.067 171.733 158 184.267L170.4 207.333H204.267C226.667 207.333 238 206.933 238 206C238 204.267 233.2 194.533 230 190C228.8 188.133 224.533 180.667 220.667 173.333C210.133 153.733 196.4 128.4 183.733 105.333C176.4 92 149.067 42.1334 135.467 17.3334L126.667 1.33336L63.7333 0.933363L0.666656 0.666697V4.53336Z" fill="black"/>
<path d="M417.467 5.20003C416.4 7.73336 406 28 394.267 50.2667C359.2 116.8 318.533 194.267 315.467 200.267L312.667 206H326.4H340.133L345.733 194.933C348.8 188.933 353.733 179.733 356.533 174.667C359.333 169.467 364.8 159.333 368.667 152C376 138 403.467 86.8 415.6 64.1334C419.467 56.8 423.333 50.6667 424.267 50.4C426.533 49.6 427.867 100.667 426.933 156.933L426.133 206H454.133H482V130C482 84.1334 482.533 54 483.2 54C483.867 54 495.467 65.2 508.933 78.9334C522.4 92.6667 546.933 117.733 563.467 134.533C580.133 151.467 602.933 174.8 614.133 186.4L634.667 207.333H671.067C691.733 207.333 707.333 206.8 707.067 206.133C706.8 205.2 666.4 163.6 610 106C606.667 102.533 582.133 77.4667 555.467 50.2667L506.933 0.666697H463.2H419.333L417.467 5.20003Z" fill="black"/>
<path d="M710 4.66663V8.66663H720.4C742.8 8.79997 758.933 15.0666 764.267 26C769.467 36.5333 770 45.8666 770 128.267V207.333L780 207.6C785.467 207.733 791.067 207.867 792.4 207.867C794.533 208 794.667 202.8 795.333 122C796 45.4666 796.267 35.3333 798.267 30.2666C800.933 23.7333 805.467 19.2 814 14.8C822.133 10.5333 825.733 9.86663 842 8.79997L856 7.99997L856.4 4.26663L856.8 0.666631H783.467H710V4.66663Z" fill="black"/>
<path d="M182.4 229.067C185.6 235.067 195.333 252.933 204 268.667C212.667 284.4 226.933 310.267 235.467 326C244.133 341.733 251.867 354.8 252.667 355.067C257.467 356.667 260.667 353.733 267.467 341.067C271.333 333.867 276 324.933 278 321.333C280 317.6 288.933 300.8 298 284C306.933 267.067 314.8 252.667 315.333 252C315.867 251.2 320 243.6 324.533 234.933L332.8 219.333H319.067H305.333L294 240.933C287.867 252.933 281.867 264.4 280.667 266.533C279.6 268.8 278 270.667 277.2 270.933C275.333 271.6 270.4 263.867 257.333 240C251.733 229.733 246.8 220.933 246.267 220.533C245.733 220 229.867 219.333 210.933 218.933L176.533 218.267L182.4 229.067Z" fill="black"/>
<path d="M770 242C770 260.933 769.6 266 768.267 266C767.333 266 756.133 255.467 743.333 242.667L720.267 219.333L683.867 219.6L647.467 220L666.4 239.333C781.2 356.8 783.867 359.333 788.933 360.933C791.733 361.733 794.267 362.133 794.667 361.733C795.2 361.333 795.6 274.933 795.333 223.6V218H782.667H770V242Z" fill="black"/>
<path d="M427.2 247.6C427.2 263.2 426.667 286.267 426.133 298.8C425.2 320.267 424.933 322 421.467 327.733C414.8 339.2 405.6 343.867 385.333 346C378.8 346.667 372.8 347.333 372 347.333C368.8 347.467 367.2 349.733 368.133 353.067L368.933 356.667H452.8H536.667L537.467 353.2C538 351.333 537.867 349.333 537.2 348.667C536.533 348 529.867 346.8 522.4 346.133C501.6 344.267 491.333 338.667 485.467 326.133C482.8 320.267 482.667 317.733 482.267 269.6L481.867 219.333H454.533H427.333L427.2 247.6Z" fill="black"/>
<path d="M60.1333 254L59.0667 278.667L38.8 299.067C27.7333 310.267 18.5333 320 18.2667 320.667C17.6 322.267 60.1333 364.667 62.4 364.667C64.4 364.667 106 323.2 106 321.067C106 320.267 97.0667 310.667 86.2667 299.733L66.4 280L64.9333 267.333C64.1333 260.4 63.4667 251.333 63.3333 247.333C63.2 243.333 62.6667 237.6 62.1333 234.667C61.4667 230.8 60.8 236.4 60.1333 254Z" fill="black"/>
<path d="M787.867 370.667C787.333 372.133 783.067 382.267 778.4 393.2C769.733 413.733 769.2 415.333 771.2 415.333C771.867 415.333 774.933 409.333 778.133 401.867C781.2 394.533 784.267 388.267 784.667 388C785.2 387.733 788.133 393.733 791.333 401.333L797.2 415.333H803.067C809.733 415.333 809.733 415.467 802.933 400.8C800.8 396.133 796.8 386.8 794 380.133C789.867 370.533 788.667 368.533 787.867 370.667Z" fill="black"/>
<path d="M26.6667 371.867L32 373.6L32.4 394.4C32.8 419.733 35.3333 423.333 35.3333 398.667C35.3333 389.467 35.8667 382 36.4 382C36.9333 382 40.6667 389.467 44.6667 398.667L51.7333 415.333H57.4667C64.2667 415.333 64.6667 417.333 52.1333 389.333L43.8667 370.667L32.5333 370.4C21.7333 370.267 21.4667 370.267 26.6667 371.867Z" fill="black"/>
<path d="M86.4 372.267C85.8667 373.6 82 383.6 77.7333 394.533C70.8 412.667 69.3333 418.133 72.5333 414.533C73.2 413.867 76.5333 405.867 80.1333 396.667L86.6667 380L87.0667 397.6L87.4667 415.333H93.3333H99.3333V394.667C99.3333 377.733 99.7333 373.733 101.333 373.2C102.4 372.8 107.333 372.267 112.267 372.267L121.2 372L131.067 388C136.4 396.8 142 406.533 143.467 409.6C146 414.933 146.533 415.333 151.333 415.333C155.867 415.333 156.667 414.933 156.667 412.533C156.667 410.933 158.667 406.4 161.2 402.267C163.6 398 168.533 389.733 172.133 383.6C179.2 371.6 180.8 370.533 190.933 371.733C200.8 372.8 201.333 374 201.733 396C202 406.667 202.8 415.333 203.467 415.333C204 415.333 204.8 407.467 204.933 397.733L205.333 380.133L218.533 396.933C232.133 414.133 234.533 416 241.6 414.133C244.667 413.333 244.133 412.267 227.733 391.733L210.667 370.133L186.667 370.267C173.467 370.4 164.8 370.667 167.333 370.933C169.867 371.333 172.533 372 173.2 372.667C174.4 373.867 166.133 390 159.067 400.4L155.2 406.133L148.8 396.4C134.8 374.8 134.133 371.867 142.933 370.933C145.733 370.667 134.267 370.4 117.6 370.267C89.7333 370 87.2 370.133 86.4 372.267Z" fill="black"/>
<path d="M246 370.933C253.867 372 254 372.4 254 394.133C254 421.333 256.533 420.4 256.933 392.933L257.333 372L262.667 371.2C265.867 370.667 262.667 370.4 254.667 370.4C247.333 370.4 243.467 370.667 246 370.933Z" fill="black"/>
<path d="M298.267 389.333C293.733 400 289.6 410.4 289.2 412.4C287.467 419.6 292 412.533 297.333 399.6C300.133 392.8 302.8 387.6 303.2 388C303.6 388.4 306.4 394.267 309.333 401.067L314.667 413.333L320.933 413.733L327.2 414.133L317.867 393.2C312.8 381.6 308.267 371.733 307.6 371.067C307.067 370.533 302.8 378.667 298.267 389.333Z" fill="black"/>
<path d="M351.333 371.067L356 372L356.4 392.933L356.8 414H362.667H368.667V395.467C368.667 385.2 369.067 376 369.467 374.8C370.133 373.067 372.4 372.667 381.2 372.667C394 372.667 400.667 375.2 406.933 382.4C411.733 387.867 413.2 393.333 413.2 405.6L413.333 414H419.6C426.933 414 428.133 412 426.667 402.267C425.333 392.933 421.733 385.867 415.6 380.4C406.933 372.667 399.867 371.067 371.333 370.533C357.733 370.4 348.8 370.667 351.333 371.067Z" fill="black"/>
<path d="M440 370.933C442.133 371.333 444.4 372.267 444.933 373.067C445.467 374 446 383.467 446 394.267V414H452C458 414 458 414 458 409.333V404.667H466.667C475.733 404.667 480.667 407.333 480.667 412C480.667 413.067 481.333 414 482 414C482.8 414 483.333 408.8 483.2 400.933V388L481.2 394.267C479.067 401.333 475.333 403.333 464.533 403.333H458V387.6V372L473.067 372.667C490.133 373.467 491.733 374.133 495.6 383.067C497.067 386.267 498.4 388.667 498.667 388.4C498.933 388.133 498.8 384 498.4 378.933L497.6 370L466.8 370.133C449.867 370.267 437.733 370.667 440 370.933Z" fill="black"/>
<path d="M517.333 371.6C514.267 381.067 512.8 393.2 515.067 390.533C515.733 389.867 516.933 386.8 517.867 383.733C518.667 380.667 520.933 376.933 522.667 375.6C526.533 372.533 539.333 370.667 547.2 372L552.4 372.8L547.867 380.4C545.333 384.533 539.6 393.6 535.333 400.533C530.933 407.333 527.333 413.2 527.333 413.6C527.333 413.867 530.133 414 533.6 413.733L540 413.333L549.6 398C554.933 389.6 560.8 379.867 562.667 376.267L566.133 370H542C523.867 370 517.733 370.4 517.333 371.6Z" fill="black"/>
<path d="M578.667 370.667C579.467 370.933 581.6 371.467 583.733 371.867L587.333 372.667V393.333V414H593.333H599.333V408.667V403.333H618H636.667V408.667V414H642.667H648.667V393.333V372.667L652.4 371.867C654.4 371.467 656.667 370.933 657.333 370.667C658.133 370.4 651.467 370.267 642.667 370.267C633.867 370.267 627.333 370.4 628 370.667C628.8 370.933 630.933 371.467 633.067 371.867L636.667 372.667V387.333V402H618H599.333V387.333V372.667L603.067 371.867C605.067 371.467 607.333 370.933 608 370.667C608.8 370.4 602.133 370.267 593.333 370.267C584.533 370.267 578 370.4 578.667 370.667Z" fill="black"/>
<path d="M670 371.067L674.667 372L675.067 393.6L675.333 415.333H681.333H687.2L687.6 394.267L688 373.333L698 372.933C721.2 372 731.2 381.467 731.333 404.4V415.467L737.733 415.067L744 414.667L744.4 406.4C744.933 395.733 741.067 386.4 733.6 379.867C724.933 372.533 718.133 371.067 690 370.533C676.4 370.4 667.467 370.533 670 371.067Z" fill="black"/>
<path d="M32.4 428.933L32 440L26.6667 440.8C23.2 441.333 25.8667 441.6 34 441.733C42.8 441.733 45.3333 441.467 42.2667 440.667C39.8667 440.133 37.4667 439.333 37.0667 438.8C36.6667 438.4 36 433.6 35.6 428C35.3333 422.533 34.5333 418 33.8667 418C33.3333 418 32.6667 422.933 32.4 428.933Z" fill="black"/>
<path d="M54 418.933C54 421.6 62.6667 440.533 63.4667 439.733C65.0667 438.133 71.4667 420.267 70.6667 419.6C70.4 419.2 69.2 419.6 68.1333 420.533C66.6667 421.733 66.1333 421.6 65.4667 420C65.0667 418.667 62.9333 418 59.3333 418C56.4 418 54 418.4 54 418.933Z" fill="black"/>
<path d="M88.2667 418.8C87.7333 419.333 87.3333 424.133 87.3333 429.467C87.3333 440.133 88.1333 439.2 78.6667 441.067C77.2 441.467 84.1333 441.733 94 441.6C104 441.6 109.333 441.2 106 440.8L100 440L99.3333 429.333L98.6667 418.667L94 418.267C91.3333 418 88.8 418.267 88.2667 418.8Z" fill="black"/>
<path d="M800.133 422.933C803.2 430.267 806.133 438.4 805.733 438.8C805.467 438.933 802 439.6 798 440.4C791.733 441.467 793.6 441.733 810.667 441.6C821.733 441.6 828.8 441.333 826.533 441.067C821.467 440.4 819.6 438.267 815.333 428.667C810.8 418.4 810.4 418 803.867 418H798L800.133 422.933Z" fill="black"/>
<path d="M145.6 420.267C145.067 420.667 144.667 425.067 144.667 430V438.8L139.733 440.267C135.467 441.467 137.467 441.6 151.333 441.6C160.533 441.6 166.267 441.333 164 441.067C157.6 440.133 156.667 438.533 156.667 428.533V419.333H151.6C148.8 419.333 146 419.733 145.6 420.267Z" fill="black"/>
<path d="M202 427.6C202 437.867 201.067 439.467 194.533 440.667C190.8 441.467 193.067 441.733 202.667 441.733C214.533 441.733 215.333 441.467 210.4 440.267L204.667 438.933V429.2C204.667 423.467 204.133 419.333 203.333 419.333C202.533 419.333 202 423.067 202 427.6Z" fill="black"/>
<path d="M238.267 421.733C243.733 429.333 254.667 442 255.6 442C256.133 442 256.667 436.933 256.667 430.667C256.667 420.533 255.333 416.267 253.6 420.933C253.067 422.267 252.667 422.267 251.2 420.933C250.267 420.133 246.533 419.333 242.933 419.333C237.067 419.333 236.667 419.467 238.267 421.733Z" fill="black"/>
<path d="M281.333 429.333C277.6 437.467 276.133 439.467 273.067 440.133C266 441.6 266.667 441.733 280 441.733C289.333 441.733 291.867 441.467 288.267 440.667C285.6 440.133 282.933 439.333 282.533 438.933C282 438.533 283.2 434.133 285.2 429.333C289.2 419.467 289.2 419.333 287.2 419.333C286.533 419.333 283.867 423.867 281.333 429.333Z" fill="black"/>
<path d="M320.133 428C321.867 432.8 323.333 437.333 323.333 438C323.333 438.667 320.133 439.733 316.4 440.4C306.4 442.267 382.667 442.4 393.867 440.667C406.933 438.533 417.333 432.267 422.4 423.467L424.8 419.333H418.267C412.4 419.333 411.467 419.733 410.8 422.533C409.6 427.333 403.733 433.733 397.867 436.667C394 438.667 390 439.333 381.467 439.333C368.533 439.333 368.667 439.467 368.667 427.2V419.333H362.667H356.8L356.4 429.6L356 440L349.067 440.4C345.2 440.667 341.067 440.267 339.733 439.467C338.4 438.8 335.6 434 333.467 428.8L329.467 419.333H323.2H316.933L320.133 428Z" fill="black"/>
<path d="M446 428.533C446 438.267 445.067 440 439.333 441.067C437.467 441.333 450.533 441.733 468.133 441.867L500.4 442L501.067 434.267C501.867 425.2 500.133 420.533 498.8 428C498.267 430.667 496.4 434.4 494.667 436.133C491.6 439.2 490.533 439.333 474.933 439.333H458.4L457.467 435.2C457.067 432.933 456.667 428.4 456.667 425.2V419.333H451.333H446V428.533Z" fill="black"/>
<path d="M517.2 428.933C513.867 434.267 510.8 439.333 510.4 440.267C509.867 441.6 515.2 442 537.733 442C569.333 442 566.4 443.067 568 430.667C568.4 426.933 569.067 422.933 569.467 421.6C569.867 420.4 569.6 419.333 568.933 419.333C568.267 419.333 566.933 422 566 425.333C563.867 432.933 559.733 437.333 553.2 439.2C547.333 440.8 525.2 441.2 524.267 439.6C523.867 439.067 526.267 434.8 529.467 430C532.533 425.2 535.2 420.933 535.333 420.267C535.333 419.733 532.667 419.333 529.333 419.333C523.467 419.333 523.467 419.333 517.2 428.933Z" fill="black"/>
<path d="M587.333 429.333C587.333 439.067 587.333 439.333 583.733 440.133C581.6 440.533 579.467 441.067 578.667 441.333C578 441.6 584.533 441.733 593.333 441.733C606.4 441.733 608.4 441.467 604.4 440.4L599.333 439.067V429.2V419.333H593.333H587.333V429.333Z" fill="black"/>
<path d="M636.667 429.333V439.2L632.4 440.533C629.067 441.467 631.6 441.733 643.333 441.733C658.533 441.733 659.333 441.6 652.4 440.133C648.667 439.333 648.667 439.067 648.667 429.333V419.333H642.667H636.667V429.333Z" fill="black"/>
<path d="M675.333 429.333C675.333 439.067 675.333 439.333 671.733 440.133C669.6 440.533 667.467 441.2 666.667 441.467C666 441.733 676.4 441.733 690 441.467C716.533 441.067 721.733 440 731.733 433.067C736 430 742 422.667 742 420.133C742 419.733 739.333 419.333 736.133 419.333C731.067 419.333 730 419.867 729.333 422.267C727.6 427.867 721.6 434.267 715.867 436.933C711.333 438.933 707.6 439.333 699.067 439.067L688 438.667L687.6 428.933L687.2 419.333H681.333H675.333V429.333Z" fill="black"/>
<path d="M763.333 429.333C760.133 436.533 758.133 439.6 756.133 440C754.533 440.267 752.133 440.8 750.667 441.067C749.2 441.467 754.267 441.733 762 441.6C770.4 441.6 773.867 441.333 770.667 440.8C764 439.733 763.6 437.867 767.733 427.467C772.667 415.333 768.667 417.067 763.333 429.333Z" fill="black"/>
</svg>